<svg width="401" height="241" viewBox="0 0 401 241" fill="none" xmlns="http://www.w3.org/2000/svg">
<g clip-path="url(#clip0_2108_1627)">
<path d="M143.791 115.258H127.5V182.39H143.791V115.258Z" stroke="#232426" stroke-width="1.5" stroke-miterlimit="10"/>
<path d="M160.065 115.258H143.775V182.39H160.065V115.258Z" stroke="#232426" stroke-width="1.5" stroke-miterlimit="10"/>
<path d="M170.926 115.258H160.066V182.39H170.926V115.258Z" fill="#232426" stroke="#232426" stroke-width="1.5" stroke-miterlimit="10"/>
<path d="M201.5 182.391H189.017L172.196 115.226L182.687 112.391L201.5 182.391Z" fill="#232426" stroke="#232426" stroke-width="1.5" stroke-miterlimit="10"/>
<path d="M151.921 122.282V175.349" stroke="#232426" stroke-width="1.5" stroke-miterlimit="10"/>
<path d="M127.5 170.582H143.775" stroke="#232426" stroke-width="1.5" stroke-miterlimit="10"/>
<path d="M331.5 183.287H69.5V190.287H331.5V183.287Z" stroke="#232426" stroke-width="1.5" stroke-miterlimit="10"/>
<path d="M102.5 182.391C115.755 182.391 126.5 171.646 126.5 158.391C126.5 145.136 115.755 134.391 102.5 134.391C89.2452 134.391 78.5 145.136 78.5 158.391C78.5 171.646 89.2452 182.391 102.5 182.391Z" stroke="#232426" stroke-width="1.5" stroke-miterlimit="10"/>
<path d="M124.19 168.659C121.431 174.353 116.534 178.727 110.566 180.829C104.598 182.931 98.041 182.591 92.3221 179.883C86.6033 177.176 82.1852 172.319 80.0291 166.37C77.873 160.421 78.1534 153.862 80.8093 148.119" fill="#232426"/>
<path d="M124.19 168.659C121.431 174.353 116.534 178.727 110.566 180.829C104.598 182.931 98.041 182.591 92.3221 179.883C86.6033 177.176 82.1852 172.319 80.0291 166.37C77.873 160.421 78.1534 153.862 80.8093 148.119" stroke="#232426" stroke-width="1.5" stroke-miterlimit="10"/>
<path d="M291.788 160.535H314.764V171.412C314.768 172.936 314.473 174.446 313.897 175.854C313.321 177.263 312.475 178.543 311.407 179.622C310.34 180.701 309.072 181.557 307.676 182.141C306.28 182.724 304.784 183.025 303.273 183.025C300.225 183.025 297.302 181.804 295.147 179.631C292.992 177.458 291.781 174.511 291.781 171.438V160.535H291.788Z" fill="#232426"/>
<path d="M303.273 160.536C302.732 152.737 296.028 138.128 293.063 135.594C290.097 133.06 290.437 134.092 290.606 136.082C290.776 138.071 291.008 147.568 294.835 153.263C298.661 158.959 299.453 160.447 299.453 160.447" stroke="#0E0E0F" stroke-width="1.2" stroke-miterlimit="10"/>
<path d="M301.37 152.123C300.71 148.657 298.768 134.903 299.912 129.316C301.055 123.728 300.484 123.221 301.37 121.263C302.255 119.306 304.247 130.006 304.875 134.669C305.504 139.332 305.906 155.778 304.875 160.53" stroke="#0E0E0F" stroke-width="1.2" stroke-miterlimit="10"/>
<path d="M305.384 155.511C306.358 148.657 308.758 147.453 310.523 143.309C312.289 139.166 312.697 136.632 313.263 136.341C313.828 136.049 316.806 144.621 315.091 148.422C313.376 152.223 307.903 155.435 307.96 160.529" stroke="#0E0E0F" stroke-width="1.2" stroke-miterlimit="10"/>
<path d="M304.969 135.46C305.559 130.937 307.388 126.85 308.016 125.064C308.644 123.277 310.24 129.955 309.782 133.699C309.323 137.443 310.869 143.107 309.455 145.426" stroke="#0E0E0F" stroke-width="1.2" stroke-miterlimit="10"/>
<path d="M241.939 95.4935C239.568 91.3193 230.804 91.5512 230.506 99.8817C230.207 108.212 241.939 114.83 241.939 114.83C241.939 114.83 253.793 108.23 253.494 99.8817C253.196 91.5334 244.309 91.3193 241.939 95.4935Z" fill="#1DBF73"/>
<path d="M272.5 73.8301H211.5V134.83H272.5V73.8301Z" stroke="#0E0E0F" stroke-width="1.5" stroke-miterlimit="10"/>
</g>
<defs>
<clipPath id="clip0_2108_1627">
<rect width="400" height="240" fill="white" transform="translate(0.5 0.390625)"/>
</clipPath>
</defs>
</svg>
